<svg width="28" height="28" viewBox="0 0 28 28" fill="none" xmlns="http://www.w3.org/2000/svg">
<path fill-rule="evenodd" clip-rule="evenodd" d="M0 14C0 6.26801 6.26801 0 14 0C21.732 0 28 6.26801 28 14C28 21.732 21.732 28 14 28C6.26801 28 0 21.732 0 14ZM1.75 14C1.75 20.7655 7.2345 26.25 14 26.25C20.7655 26.25 26.25 20.7655 26.25 14C26.25 7.2345 20.7655 1.75 14 1.75C7.2345 1.75 1.75 7.2345 1.75 14Z" fill="white"/>
<circle cx="9.93548" cy="9.93548" r="1.80645" fill="white"/>
<circle cx="18.0645" cy="9.93548" r="1.80645" fill="white"/>
<path d="M19.9713 14.4516C19.9713 17.9435 17.2979 20.7742 14 20.7742C10.7021 20.7742 8.02866 17.9435 8.02866 14.4516H6.32257C6.32257 18.9411 9.75987 22.5806 14 22.5806C18.2401 22.5806 21.6774 18.9411 21.6774 14.4516H19.9713Z" fill="white"/>
</svg>
