<svg width="157" height="157" viewBox="0 0 157 157" fill="none" xmlns="http://www.w3.org/2000/svg">
<g opacity="0.412784">
<path fill-rule="evenodd" clip-rule="evenodd" d="M0 78.5C0 35.1456 35.1456 0 78.5 0C121.854 0 157 35.1456 157 78.5C157 121.854 121.854 157 78.5 157C35.1456 157 0 121.854 0 78.5ZM9.8125 78.5C9.8125 116.435 40.5649 147.188 78.5 147.188C116.435 147.188 147.188 116.435 147.188 78.5C147.188 40.5649 116.435 9.8125 78.5 9.8125C40.5649 9.8125 9.8125 40.5649 9.8125 78.5Z" fill="#FF8BA0"/>
<circle cx="51.5" cy="54.5" r="9.5" fill="#FF8BA0"/>
<circle cx="101.5" cy="54.5" r="9.5" fill="#FF8BA0"/>
<path d="M113.111 79C113.111 97.4709 97.6152 112.444 78.5 112.444C59.3848 112.444 43.8889 97.4709 43.8889 79H34C34 102.748 53.9233 122 78.5 122C103.077 122 123 102.748 123 79H113.111Z" fill="#FF8BA0"/>
</g>
</svg>
