<svg width="167" height="167" viewBox="0 0 167 167" fill="none" xmlns="http://www.w3.org/2000/svg">
<path fill-rule="evenodd" clip-rule="evenodd" d="M85 58.0395C89.3848 52.1232 95.265 49 102.039 49C114.779 49 124 59.6439 124 72.5832C124 86.7071 112.683 96.3266 97.0196 109.64L97.0171 109.642C94.209 112.029 85 120 85 120C85 120 75.7903 112.028 72.9823 109.642C57.3178 96.3273 46 86.7075 46 72.5832C46 59.6759 55.1933 49 67.9612 49C74.7346 49 80.6152 52.1232 85 58.0395ZM85 106.903C86.9489 105.226 88.8283 103.629 90.6673 102.066L90.6691 102.065C105.315 89.6159 114.155 82.1018 114.155 72.5828C114.155 64.7902 108.946 58.9136 102.039 58.9136C93.0533 58.9136 89.8685 69.7131 89.7373 70.1728V70.1734L80.2614 70.1701L80.2604 70.1668C80.1049 69.6252 76.9096 58.9139 67.9612 58.9139C61.0538 58.9139 55.8447 64.7905 55.8447 72.5832C55.8447 82.1017 64.6847 89.6156 79.3302 102.064L79.3321 102.065C81.1711 103.629 83.0508 105.226 85 106.903Z" fill="#FF8776"/>
<path fill-rule="evenodd" clip-rule="evenodd" d="M88.3926 0V10.2757C125.072 12.6741 154.33 41.9888 156.724 78.6074H167V88.3926H156.724C154.326 125.072 125.012 154.33 88.3926 156.724V167H78.6074V156.724C41.9284 154.326 12.6701 125.012 10.2757 88.3926H0V78.6074H10.2757C12.6741 41.9284 41.9881 12.6701 78.6074 10.2757V0H88.3926ZM88.3926 137.318V146.917C119.572 144.534 144.534 119.568 146.917 88.3893H137.318V78.6074H146.917C144.534 47.4283 119.572 22.4657 88.3926 20.0827V29.6816H78.6074V20.0827C47.4283 22.4657 22.4657 47.4283 20.0827 78.6074H29.6816V88.3926H20.0827C22.4657 119.572 47.4283 144.534 78.6074 146.917V137.318H88.3926Z" fill="#FF8776"/>
</svg>
