<svg width="28" height="28" viewBox="0 0 28 28" fill="none" xmlns="http://www.w3.org/2000/svg">
<path fill-rule="evenodd" clip-rule="evenodd" d="M14 9.72465C14.7365 8.74001 15.7241 8.22021 16.8619 8.22021C19.0017 8.22021 20.5505 9.99167 20.5505 12.1452C20.5505 14.4958 18.6496 16.0968 16.0188 18.3125L16.0184 18.3129C15.5468 18.71 14 20.0367 14 20.0367C14 20.0367 12.4531 18.71 11.9815 18.3128C9.35049 16.0969 7.44955 14.4959 7.44955 12.1452C7.44955 9.99701 8.99366 8.22021 11.1382 8.22021C12.2758 8.22021 13.2635 8.74001 14 9.72465ZM14 17.857C14.3274 17.5779 14.643 17.3121 14.9519 17.052L14.9522 17.0517C17.4121 14.9799 18.897 13.7293 18.8969 12.1451C18.8969 10.8482 18.022 9.87013 16.8618 9.87013C15.3526 9.87013 14.8177 11.6675 14.7957 11.744V11.7441L13.2041 11.7436L13.204 11.743C13.1778 11.6529 12.6412 9.87018 11.1382 9.87018C9.978 9.87018 9.10307 10.8482 9.10307 12.1452C9.10307 13.7293 10.5879 14.9799 13.0477 17.0516L13.048 17.0519C13.3569 17.312 13.6726 17.5779 14 17.857Z" fill="white"/>
<path fill-rule="evenodd" clip-rule="evenodd" d="M14.8203 0V1.72287C20.9701 2.12499 25.8757 7.04003 26.2771 13.1797H28V14.8203H26.2771C25.875 20.9701 20.96 25.8757 14.8203 26.2771V28H13.1797V26.2771C7.02991 25.875 2.12434 20.96 1.72287 14.8203H0V13.1797H1.72287C2.12499 7.02991 7.03992 2.12434 13.1797 1.72287V0H14.8203ZM14.8203 23.0234V24.6328C20.0479 24.2333 24.2333 20.0474 24.6328 14.8198H23.0234V13.1797H24.6328C24.2333 7.95205 20.0479 3.76671 14.8203 3.36716V4.97656H13.1797V3.36716C7.95205 3.76671 3.76671 7.95205 3.36716 13.1797H4.97656V14.8203H3.36716C3.76671 20.0479 7.95205 24.2333 13.1797 24.6328V23.0234H14.8203Z" fill="white"/>
</svg>
