<svg width="30" height="28" viewBox="0 0 30 28" fill="none" xmlns="http://www.w3.org/2000/svg">
<path d="M17.6041 8.7512C17.4694 8.64241 17.2991 8.5888 17.1271 8.60093H14.5254L16.9723 5.8397L17.2015 5.58299L17.3192 5.43272C17.3601 5.37464 17.3933 5.31148 17.4183 5.24488C17.4464 5.17311 17.461 5.09664 17.4616 5.01947C17.4789 4.83688 17.3894 4.66078 17.2324 4.56866C17.0289 4.47427 16.8056 4.43123 16.582 4.44343H13.5404C13.3781 4.43224 13.2174 4.48124 13.0882 4.58118C12.9815 4.67299 12.9221 4.80902 12.9272 4.9506C12.9272 5.16348 12.9974 5.29286 13.1378 5.3388C13.3391 5.39664 13.5481 5.422 13.7573 5.41393H15.7395C15.6569 5.53079 15.5496 5.66853 15.4174 5.82718L14.9095 6.40322L14.2218 7.15457L13.4227 8.04994C13.1461 8.363 12.9643 8.57174 12.8776 8.67606C12.6809 8.91751 12.7054 9.27229 12.9334 9.48377C13.0967 9.60821 13.2993 9.66824 13.5033 9.65282H17.1209C17.294 9.66652 17.4661 9.61526 17.6041 9.50881C17.7094 9.41591 17.7684 9.28059 17.7652 9.1394C17.7705 8.99234 17.7116 8.85036 17.6041 8.7512Z" fill="white"/>
<path d="M23.2327 11.8252C23.1221 11.7363 22.9821 11.6931 22.841 11.7045H20.7182L22.7083 9.46791L22.8978 9.25823L23.0179 9.11209C23.0518 9.06507 23.0793 9.01385 23.1 8.9596C23.1239 8.90106 23.1368 8.83864 23.1379 8.77533C23.1538 8.62705 23.0822 8.48305 22.9547 8.40681C22.7886 8.33008 22.6065 8.29513 22.424 8.30514H19.9222C19.7904 8.29776 19.6602 8.33834 19.5558 8.41951C19.4684 8.49338 19.4195 8.60346 19.4231 8.71815C19.4231 8.88756 19.48 8.99351 19.5937 9.03585C19.7581 9.08167 19.9287 9.10097 20.0991 9.09303H21.7164C21.6533 9.18834 21.5648 9.29636 21.4511 9.42979L21.0341 9.89998L20.4908 10.5354L19.859 11.2597C19.6316 11.5139 19.4821 11.6876 19.4105 11.7808C19.2616 11.9728 19.2807 12.2468 19.4547 12.4161C19.5873 12.5153 19.7511 12.5628 19.9159 12.5496H22.8473C22.9874 12.5609 23.1267 12.5202 23.239 12.4352C23.3226 12.359 23.3687 12.2499 23.3654 12.1366C23.3683 12.0183 23.3199 11.9047 23.2327 11.8252Z" fill="white"/>
<path d="M29.7698 8.38322C29.6353 8.27475 29.4652 8.2213 29.2934 8.2334H26.6763L29.1202 5.48046L29.3491 5.22452L29.4976 5.04349C29.5384 4.98559 29.5717 4.92262 29.5966 4.85622C29.6247 4.78466 29.6393 4.70842 29.6399 4.63149C29.6572 4.44944 29.5678 4.27387 29.411 4.18203C29.2077 4.08792 28.9847 4.04508 28.7614 4.05718H25.6926C25.5305 4.04602 25.37 4.09487 25.241 4.19451C25.1344 4.28604 25.0751 4.42166 25.0801 4.56282C25.0801 4.77506 25.1502 4.90405 25.2904 4.94985C25.4915 5.00752 25.7003 5.0328 25.9091 5.02476H27.889C27.8065 5.14126 27.6993 5.2786 27.5673 5.43677L27.0537 6.02356L26.3855 6.77266L25.5874 7.66533C25.3111 7.97746 25.1296 8.18556 25.043 8.28958C24.8465 8.53031 24.871 8.88402 25.0987 9.09486C25.2618 9.21893 25.4641 9.27878 25.6679 9.26341H29.2749C29.4495 9.28557 29.6261 9.24101 29.7698 9.13856C29.8749 9.04593 29.9339 8.91102 29.9307 8.77025C29.936 8.62363 29.8772 8.48208 29.7698 8.38322Z" fill="white"/>
<path fill-rule="evenodd" clip-rule="evenodd" d="M26.9477 18.7487C27.1848 18.6513 27.4575 18.7083 27.6357 18.8923C27.8121 19.0783 27.8567 19.353 27.7483 19.5851C26.2069 22.9028 23.4678 25.5177 20.0783 26.9073C12.6467 29.954 4.14757 26.4112 1.09486 18.9944C-1.95785 11.5775 1.59191 3.09506 9.02343 0.0483682C9.18697 -0.0199013 9.37194 -0.0157661 9.5322 0.0599155C9.84444 0.2073 9.97788 0.579388 9.83021 0.891009C8.25425 4.26001 8.16826 8.13475 9.59318 11.5701C12.3993 18.3354 20.1692 21.5493 26.9477 18.7487ZM1.25809 13.4784C1.25684 20.8107 7.21153 26.7557 14.5583 26.7569C19.1694 26.7423 23.4466 24.3543 25.872 20.4403C24.5764 20.8083 23.2359 20.995 21.8888 20.9951C13.8513 20.9955 7.33521 14.4929 7.33482 6.47116C7.33279 4.91134 7.58631 3.36166 8.08531 1.88345C3.87137 4.22701 1.25887 8.66382 1.25809 13.4784Z" fill="white"/>
</svg>
