<svg width="174" height="163" viewBox="0 0 174 163" fill="none" xmlns="http://www.w3.org/2000/svg">
<path d="M102.036 50.7984C101.231 50.1724 100.213 49.864 99.1855 49.9338H83.6393L98.2601 34.0457L99.6297 32.5686L100.333 31.704C100.577 31.3698 100.776 31.0064 100.925 30.6232C101.093 30.2102 101.181 29.7702 101.184 29.3262C101.287 28.2755 100.753 27.2623 99.8147 26.7322C98.5983 26.1891 97.2644 25.9414 95.9282 26.0117H77.754C76.7842 25.9473 75.8237 26.2292 75.0519 26.8043C74.4143 27.3325 74.0595 28.1152 74.0895 28.9299C74.0895 30.1548 74.5092 30.8992 75.348 31.1636C76.551 31.4964 77.7998 31.6423 79.0495 31.5959H90.8942C90.4005 32.2683 89.7592 33.0609 88.9694 33.9737L85.9342 37.2882L81.8256 41.6115L77.0507 46.7634C75.3975 48.5647 74.3116 49.7658 73.7934 50.3661C72.6182 51.7554 72.7644 53.7968 74.1266 55.0136C75.1028 55.7296 76.3132 56.0751 77.5319 55.9863H99.1485C100.183 56.0651 101.211 55.7702 102.036 55.1577C102.664 54.6232 103.017 53.8445 102.998 53.0321C103.03 52.1859 102.678 51.369 102.036 50.7984Z" fill="#FFC1BE"/>
<path d="M133.214 69.8957C132.559 69.3931 131.731 69.1495 130.896 69.2137H118.332L130.11 56.5784L131.232 55.3938L131.943 54.5682C132.143 54.3026 132.306 54.0132 132.429 53.7067C132.57 53.376 132.646 53.0234 132.653 52.6657C132.747 51.828 132.323 51.0145 131.569 50.5838C130.586 50.1504 129.508 49.9529 128.428 50.0095H113.621C112.841 49.9677 112.071 50.197 111.452 50.6556C110.936 51.0729 110.646 51.6948 110.667 52.3427C110.667 53.2998 111.004 53.8983 111.677 54.1375C112.65 54.3964 113.659 54.5054 114.668 54.4605H124.24C123.866 54.999 123.343 55.6092 122.67 56.363L120.202 59.0193L116.986 62.6088L113.247 66.701C111.901 68.1368 111.016 69.1181 110.593 69.6444C109.711 70.7294 109.825 72.2774 110.854 73.234C111.639 73.7944 112.609 74.0623 113.584 73.9878H130.933C131.762 74.0515 132.587 73.8218 133.251 73.3417C133.746 72.9114 134.019 72.2949 133.999 71.6546C134.016 70.9865 133.73 70.3444 133.214 69.8957Z" fill="#FFC1BE"/>
<path d="M173.037 49.9034C172.233 49.2793 171.217 48.9718 170.19 49.0414H154.552L169.155 33.2011L170.523 31.7284L171.41 30.6867C171.654 30.3536 171.853 29.9912 172.002 29.6092C172.169 29.1974 172.257 28.7588 172.26 28.3161C172.364 27.2686 171.829 26.2584 170.893 25.7299C169.678 25.1884 168.345 24.9419 167.011 25.0115H148.674C147.706 24.9473 146.746 25.2284 145.975 25.8017C145.339 26.3284 144.984 27.1087 145.014 27.921C145.014 29.1422 145.433 29.8844 146.271 30.1479C147.473 30.4797 148.72 30.6252 149.968 30.579H161.798C161.305 31.2493 160.665 32.0395 159.876 32.9496L156.807 36.326L152.815 40.6363L148.046 45.7727C146.395 47.5687 145.31 48.7661 144.792 49.3646C143.619 50.7498 143.765 52.785 145.125 53.9982C146.1 54.7121 147.309 55.0564 148.526 54.968H170.079C171.123 55.0955 172.178 54.8391 173.037 54.2496C173.665 53.7167 174.017 52.9404 173.998 52.1304C174.03 51.2867 173.678 50.4723 173.037 49.9034Z" fill="#FFC1BE"/>
<path fill-rule="evenodd" clip-rule="evenodd" d="M155.056 109.144C156.421 108.577 157.99 108.909 159.015 109.98C160.03 111.063 160.287 112.662 159.663 114.013C150.794 133.327 135.033 148.55 115.53 156.639C72.769 174.375 23.865 153.751 6.29979 110.574C-11.2654 67.3975 9.15977 18.0177 51.9205 0.281572C52.8615 -0.115854 53.9258 -0.0917815 54.848 0.348794C56.6446 1.20678 57.4124 3.37286 56.5627 5.18694C47.4947 24.7993 46.9999 47.3559 55.1988 67.3548C71.3453 106.738 116.053 125.448 155.056 109.144ZM7.23902 78.4636C7.23182 121.148 41.4949 155.756 83.7681 155.764C110.3 155.678 134.911 141.777 148.867 118.992C141.412 121.134 133.699 122.221 125.948 122.221C79.6999 122.224 42.2066 84.3692 42.2043 37.6714C42.1926 28.591 43.6514 19.5697 46.5226 10.9644C22.2757 24.6072 7.24352 50.4358 7.23902 78.4636Z" fill="#FFC1BE"/>
</svg>
