<svg width="28" height="28" viewBox="0 0 28 28" fill="none" xmlns="http://www.w3.org/2000/svg">
<path fill-rule="evenodd" clip-rule="evenodd" d="M26.8901 0.00559162C27.1725 -0.024233 27.4545 0.0661784 27.6671 0.254618C27.8789 0.444289 28 0.71523 28 0.999648V21.9999C28 24.2059 25.757 26 23 26C20.2431 26 18 24.2059 18 21.9999C18 19.7939 20.243 17.9998 23 17.9998C24.0558 17.994 25.093 18.2765 26 18.8168V7.11668L9.99998 8.89971V23.9999C9.99998 26.206 7.75694 28 4.99999 28C2.24303 28 0 26.206 0 23.9999C0 21.7939 2.24303 19.9999 5.00005 19.9998C6.05602 19.9949 7.09337 20.2785 8.00005 20.8198V2.9996C7.99999 2.48988 8.38337 2.06167 8.89003 2.0056L26.8901 0.00559162ZM1.99998 23.9999C1.99998 25.0839 3.37401 25.9999 4.99999 25.9999C6.62603 25.9999 7.99999 25.0839 7.99999 23.9999C7.99999 22.9159 6.62597 21.9999 4.99999 21.9999C3.37401 21.9999 1.99998 22.9159 1.99998 23.9999ZM23 23.9999C21.374 23.9999 20 23.0839 20 21.9999C20 20.9159 21.374 19.9999 23 19.9999C24.626 19.9999 26 20.9159 26 21.9999C26 23.0839 24.626 23.9999 23 23.9999ZM9.99998 6.88271L26 5.10466V2.11663L9.99998 3.89967V6.88271Z" fill="white"/>
</svg>
