<svg width="137" height="131" viewBox="0 0 137 131" fill="none" xmlns="http://www.w3.org/2000/svg">
<path fill-rule="evenodd" clip-rule="evenodd" d="M131.569 0.0261608C132.951 -0.113376 134.331 0.30962 135.371 1.19125C136.408 2.07864 137 3.34625 137 4.67692V102.928C137 113.249 126.025 121.643 112.536 121.643C99.0464 121.643 88.0715 113.249 88.0715 102.928C88.0715 92.6072 99.0461 84.2136 112.536 84.2136C117.701 84.1864 122.776 85.5081 127.214 88.0359V33.2959L48.9284 41.6379V112.285C48.9284 122.606 37.9536 131 24.4642 131C10.9748 131 0 122.606 0 112.285C0 101.964 10.9748 93.5708 24.4645 93.5705C29.6313 93.5477 34.7068 94.8743 39.1431 97.4071V14.0338C39.1428 11.6491 41.0186 9.64569 43.4977 9.38333L131.569 0.0261608ZM10 112.5C10 117.649 16.6411 122 24.5 122C32.3592 122 39 117.649 39 112.5C39 107.351 32.3589 103 24.5 103C16.6411 103 10 107.351 10 112.5ZM112.5 112C104.641 112 98 107.649 98 102.5C98 97.351 104.641 93 112.5 93C120.359 93 127 97.351 127 102.5C127 107.649 120.359 112 112.5 112ZM49 32L127 23.7926V10L49 18.2304V32Z" fill="#979EFF"/>
</svg>
