<svg width="22" height="22" viewBox="0 0 22 22" fill="none" xmlns="http://www.w3.org/2000/svg">
<path fill-rule="evenodd" clip-rule="evenodd" d="M0 11.0031C0 4.93726 4.93035 7.86952e-06 10.9969 0C17.0635 -7.83982e-06 21.9954 4.93725 21.9954 11.0031C21.9954 17.0689 17.0635 22 10.9969 22C4.93035 22 0 17.0689 0 11.0031ZM10.2143 2.36021V1.61133C5.62765 1.9876 1.98998 5.62799 1.61133 10.2143H2.35408C2.79042 10.2126 3.14443 10.5667 3.14286 11.0031C3.14117 11.437 2.78802 11.7873 2.35408 11.7857H1.61133C1.98727 16.3744 5.62562 20.0127 10.2143 20.3887V19.6459C10.2126 19.212 10.563 18.8587 10.9969 18.8571C11.4333 18.8554 11.7873 19.2096 11.7857 19.6459V20.3887C16.372 20.01 20.0124 16.3724 20.3887 11.7857H19.6383C19.2067 11.784 18.8572 11.4346 18.8556 11.0031C18.8539 10.5691 19.2043 10.2159 19.6383 10.2143H20.3887C20.0097 5.63 16.37 1.99032 11.7857 1.61133V2.36021C11.7849 2.79475 11.4315 3.14596 10.9969 3.14439C10.5648 3.14271 10.2151 2.79235 10.2143 2.36021ZM14.6263 6.34405L9.02191 8.58149C8.81937 8.66205 8.65896 8.82246 8.57841 9.025L6.34097 14.6293C6.08322 15.2758 6.72421 15.9168 7.37068 15.6591L12.972 13.417C13.1736 13.3365 13.3334 13.1767 13.4139 12.975L15.656 7.37376C15.7715 7.0843 15.7066 6.754 15.4902 6.52971C15.1536 6.20372 14.7936 6.28725 14.6263 6.34405ZM12.065 12.0727L13.4922 8.5032L9.92272 9.93038L8.49554 13.4999L12.065 12.0727Z" fill="#77838F"/>
</svg>
