<svg width="24" height="22" viewBox="0 0 24 22" fill="none" xmlns="http://www.w3.org/2000/svg">
<path fill-rule="evenodd" clip-rule="evenodd" d="M22.8898 9.51051L13.7328 0.799696C12.6111 -0.266566 10.8551 -0.266566 9.73423 0.799696L0.599062 9.49087C0.0452737 9.97646 -0.144798 10.7379 0.114106 11.4317C0.37301 12.1239 1.0144 12.571 1.74888 12.571H2.34725V21.2143C2.34725 21.648 2.69767 22 3.12944 22H20.3376C20.7693 22 21.1197 21.648 21.1197 21.2143V12.571H21.7173C22.4518 12.571 23.094 12.1231 23.3521 11.4301C23.611 10.7371 23.4202 9.97489 22.8898 9.51051ZM9.38694 20.4285V16.4998C9.38694 15.2001 10.4398 14.1425 11.7335 14.1425C13.0272 14.1425 14.0801 15.2001 14.0801 16.4998V20.4285H9.38694ZM20.3376 10.9995H21.7173C21.8871 10.9995 21.9661 10.785 21.8378 10.6734L12.6573 1.9406C12.1395 1.44794 11.3275 1.44794 10.8097 1.9406L1.6511 10.653C1.48059 10.8039 1.59322 10.9995 1.74888 10.9995H3.12944C3.56121 10.9995 3.91163 11.3515 3.91163 11.7853V20.4285H7.82256V16.4998C7.82256 14.3334 9.57701 12.571 11.7335 12.571C13.89 12.571 15.6444 14.3334 15.6444 16.4998V20.4285H19.5554V11.7853C19.5554 11.3515 19.9058 10.9995 20.3376 10.9995Z" fill="#6440A5"/>
</svg>
