<svg width="22" height="22" viewBox="0 0 22 22" fill="none" xmlns="http://www.w3.org/2000/svg">
<path fill-rule="evenodd" clip-rule="evenodd" d="M14.5429 15.6285C15.8499 15.6285 17.1128 15.2482 18.1951 14.5287L19.7488 13.4958L19.1689 15.2627C18.5309 17.2066 17.3148 18.8785 15.6521 20.0978C13.9551 21.3422 11.9405 22 9.82611 22C7.20146 22 4.73394 20.9836 2.87802 19.1378C1.02209 17.2921 0 14.8381 0 12.2279C0 9.61768 1.02213 7.16364 2.87802 5.31796C4.7339 3.47228 7.20146 2.45581 9.82611 2.45581C10.0651 2.45581 10.3078 2.4646 10.5476 2.48191L12.409 2.61658L10.8627 3.65585C9.04592 4.8768 7.9613 6.90571 7.9613 9.08313C7.9613 12.6922 10.9137 15.6285 14.5429 15.6285ZM9.82611 20.7142C11.6624 20.7142 13.4116 20.1432 14.8848 19.0629C15.8552 18.3513 16.6504 17.4624 17.2358 16.4441C16.3793 16.7541 15.4703 16.9143 14.5429 16.9143C10.2009 16.9143 6.66839 13.4012 6.66839 9.08313C6.66839 7.11011 7.41259 5.23906 8.71783 3.81285C4.53445 4.35498 1.29291 7.9221 1.29291 12.2279C1.29291 16.9073 5.12087 20.7142 9.82611 20.7142Z" fill="#77838F"/>
<path d="M18.4626 4.03368L20.8973 0H16.4426V1.28725H18.6022L16.1674 5.32093H21.1814V4.03368H18.4626Z" fill="#77838F"/>
<path d="M14.7349 4.91162H10.7849V6.19889H12.4843L10.6419 9.31162H14.6929V8.02436H12.8925L14.7349 4.91162Z" fill="#77838F"/>
<path d="M17.2006 12.213L18.3721 10.2325H15.0564V11.5265H16.1111L14.9395 13.507H18.4186V12.213H17.2006Z" fill="#77838F"/>
</svg>
