<svg width="22" height="22" viewBox="0 0 22 22" fill="none" xmlns="http://www.w3.org/2000/svg">
<path fill-rule="evenodd" clip-rule="evenodd" d="M0 21.2002C0 15.5437 3.65291 12.4286 10.2857 12.4286C16.9186 12.4286 20.5715 15.544 20.5714 21.2002C20.5714 21.642 20.2108 22 19.7658 22H0.805664C0.360665 22 0 21.642 0 21.2002ZM10.2857 14.0283C4.86197 14.0283 1.95755 16.1711 1.64065 20.4003H18.9311C18.614 16.1711 15.7095 14.0283 10.2857 14.0283Z" fill="#77838F"/>
<path fill-rule="evenodd" clip-rule="evenodd" d="M5 5.39844C5 2.32091 7.30301 0 10.3571 0C13.4113 0 15.7143 2.32091 15.7143 5.3987C15.7143 8.56611 13.3111 11.1429 10.3571 11.1429C7.4032 11.1429 5 8.56611 5 5.39844ZM6.61521 5.3987C6.61521 7.68635 8.2937 9.54745 10.3571 9.54745C12.4206 9.54745 14.0991 7.68635 14.0991 5.3987C14.0991 3.23043 12.4906 1.59566 10.3571 1.59566C8.18898 1.59566 6.61521 3.19508 6.61521 5.3987Z" fill="#77838F"/>
</svg>
